<?xml version="1.0" encoding="utf-8"?>
<!-- Generator: Adobe Illustrator 17.0.0, SVG Export Plug-In . SVG Version: 6.00 Build 0)  -->
<!DOCTYPE svg PUBLIC "-//W3C//DTD SVG 1.1//EN" "http://www.w3.org/Graphics/SVG/1.1/DTD/svg11.dtd">
<svg version="1.1" xmlns="http://www.w3.org/2000/svg" xmlns:xlink="http://www.w3.org/1999/xlink" x="0px" y="0px"
	 width="482.943px" height="218.611px" viewBox="0 0 482.943 218.611" enable-background="new 0 0 482.943 218.611"
	 xml:space="preserve">
<g id="Layer_4">
	<path fill-rule="evenodd" clip-rule="evenodd" fill="#FFFFFF" d="M419.591,71.912l-15.801,0.105l7.522-58.139L419.591,71.912z
		 M389.013,74.163l-14.342,6.642l-17.232-56.031L389.013,74.163z M450.441,83.906l-14.193-6.948l32.627-48.698L450.441,83.906z
		 M349.731,144.027c0.441,41.224,31.625,61.551,62.329,61.35c22.251-0.146,45.13-9.957,53.594-35.198
		c4.06-11.755,3.986-23.312,3.215-35.385l-57.093,0.375l0.174,26.735l25.7-0.166c-5.441,11.592-13.359,14.922-25.776,15.003
		c-18.287,0.12-30.099-12.915-30.229-32.922c-0.121-18.456,10.304-33.706,29.793-33.833c12.245-0.082,20.207,4.009,25.279,14.322
		l30.359-0.195c-6.056-29.976-31.497-42.402-55.824-42.416C380.551,81.897,349.637,102.798,349.731,144.027 M362.08,85.278
		l-17.483-56.844c-2.202-7.159,1.813-14.752,8.971-16.959c5.999-1.847,12.501,0.68,15.678,6.072l23.296,36.443l5.457-42.197
		c0.958-7.391,7.811-12.645,15.195-11.678c6.093,0.803,10.925,5.669,11.68,11.757l6.77,47.446l26.082-38.931
		c4.145-6.188,12.607-7.875,18.803-3.734c5.251,3.506,7.382,10.19,5.15,16.073l-18.255,55.109c-0.029,0.077-0.049,0.15-0.078,0.228
		c8.825,8.93,14.403,20.033,17.012,32.412c0.266,1.062,0.401,2.159,0.404,3.255c0.005,1.132-0.132,2.255-0.403,3.347
		c1.261,1.938,2.011,4.178,2.16,6.528c0.414,6.539,0.62,13.053,0.181,19.595c-0.477,7.141-1.731,14.081-4.048,20.86l-0.037,0.101
		c-4.535,13.534-12.921,24.859-24.885,32.715c-12.24,8.038-26.942,11.637-41.485,11.734c-20.086,0.13-40.111-7.136-54.522-21.32
		c-14.418-14.19-21.068-32.872-21.403-52.89c-0.013-0.232-0.019-0.465-0.02-0.693c-0.045-20.16,6.398-39.273,20.704-53.766
		C358.619,88.302,360.314,86.749,362.08,85.278"/>
</g>
<g id="Layer_3">
	<path fill-rule="evenodd" clip-rule="evenodd" fill="#FFFFFF" d="M110.112,58.536c14.476,0,26.213,11.736,26.213,26.213
		c0,14.476-11.737,26.213-26.213,26.213c-14.477,0-26.213-11.737-26.213-26.213C83.899,70.272,95.635,58.536,110.112,58.536"/>
	<path fill="#FFFFFF" d="M0,0l36.863,0.024l27.826,63.72c-2.481,5.826-3.855,12.237-3.855,18.969
		c0,21.005,13.367,38.887,32.057,45.611l16.401,37.559l16.402-37.557c18.692-6.722,32.06-24.605,32.06-45.612
		c0-6.732-1.374-13.143-3.855-18.97l27.828-63.719L218.59,0l-92.933,218.589H92.932L0,0z"/>
	<g>
		<path fill="#FFFFFF" d="M243.354,91.115h12.979v36.961h5.606V96.929l2.906,1.765v29.382h27.41v12.979h-35.923v34.677h-12.979
			v-26.164h-30.42l-1.869-2.906h32.289v-5.606h-35.715v-12.979h35.715V91.115z M264.845,149.568v36.962h-13.496l-2.284-2.389h12.874
			v-37.479h36.338v-12.874l2.388,2.284v13.496H264.845z"/>
	</g>
</g>
</svg>
